<?xml version="1.0" encoding="utf-8" ?><svg xmlns="http://www.w3.org/2000/svg" xmlns:xlink="http://www.w3.org/1999/xlink" width="1536" height="672" viewBox="0 0 1536 672"><path fill="#5DC2A6" d="M569.745 155.137C576 166.081 579.539 195.627 581.007 208.782C581.686 214.863 583.786 224.244 583.918 230.066C585.948 319.375 582.67 434.472 503.202 492.801C471.011 516.462 428.512 513.216 392.657 500.667C362.817 489.266 333.587 462.629 315.777 437.011C293.897 405.539 285.861 372.58 288.254 335.014C289.263 319.173 287.02 302.746 290.459 286.107C300.247 238.752 331.687 175.358 388.757 180.733C420.865 184.709 436.361 221.433 430.616 252.161C428.083 263.575 425.487 271.644 416.2 279.536C399.277 293.916 378.891 303.577 357.805 310.148C354.191 311.274 346.536 315.998 343.563 314.54C344.684 311.741 347.312 310.518 350.073 308.435C348.444 308.057 348.184 307.837 346.711 306.996L346.499 305.403C351.228 298.248 347.454 294.026 352.497 287.278C359.374 276.552 375.643 277.42 384.307 270.975C394.402 262.698 408.096 246.657 405.627 232.544C402.902 216.962 392.911 211.672 378.321 214.433C373.778 215.269 369.483 217.124 365.76 219.858C361.377 223.042 338.656 247.621 336.107 251.959C300.904 311.889 322.024 403.147 380.024 441.138C419.849 467.224 468.574 462.051 493.76 421.002C533.835 355.686 541.375 274.478 533.772 199.659C532.829 190.327 530.003 181.564 528.154 172.493C537.635 168.365 548.715 166.822 558.415 162.986C558.241 163.055 562.16 164.512 562.35 164.574C564.968 161.459 567.292 158.377 569.745 155.137Z"/><path fill="#76CEC4" d="M371.753 283.594L372.284 284.225C370.754 286.088 361.547 289.867 358.76 291.126L357.826 290.336C359.603 287.3 368.186 284.856 371.753 283.594Z"/><path fill="#F3F7F7" fill-opacity="0.011764706" d="M1058.35 600.17L1057.23 598.321C1072.21 582.382 1046 571.874 1034.73 566.723C1026.32 562.709 1018.65 556.51 1015.91 547.302C1010.82 530.522 1017.16 511.987 1030.44 500.832C1035.6 496.498 1043.48 497.808 1044.2 505.285C1044.49 508.265 1044.55 508.351 1042.92 510.812C1035.92 513.61 1034.6 518.284 1031.25 524.928C1027.18 532.996 1029.2 538.773 1032.41 546.905C1038.42 551.55 1045.81 556.477 1053.87 557.714C1054.03 557.778 1055.52 557.493 1055.52 557.418C1055.38 546.826 1058.43 541.446 1068.75 538.236C1077.65 535.469 1085.13 536.351 1094.25 536.041C1103.07 530.194 1110.31 513.662 1114.2 504.515C1115.61 503.862 1116.66 503.413 1118.12 502.883C1116.3 501.269 1112.94 501.898 1110.23 500.855C1099.9 496.878 1086.34 493.102 1076.57 488.109C1061.52 479.775 1048.12 468.552 1036.07 456.142C1030.02 449.911 1016.36 429.642 1025.16 421.086C1026.05 420.219 1027.45 420.642 1028.76 420.734C1029.24 419.773 1029.69 418.799 1030.11 417.814C1033.02 418.464 1035.93 415.568 1038.81 415.72C1042.5 416.806 1045.37 424.407 1047.66 427.833C1053.49 436.762 1062.05 442.859 1070.91 449C1102.72 471.042 1149.06 475.44 1184.36 459.691C1188.78 457.721 1191.17 440.704 1202.16 441.766C1202.47 441.795 1210.02 436.771 1211.36 436.919C1220.58 434.308 1221.69 435.166 1229.92 439.162C1235.13 445.836 1237.68 463.784 1233.36 471.512C1231.51 474.817 1228.35 483.051 1225.81 485.053C1200.5 505.02 1166.73 507.199 1135.75 506.305C1131.88 506.194 1131.59 503.784 1128.15 503.992C1126.33 505.398 1126.8 505.409 1126.74 507.927C1126.48 519.974 1118.71 527.918 1113.87 538.164C1112.92 540.179 1120.55 544.125 1122.74 545.35C1135.02 552.212 1141.05 564.406 1145.8 577.057C1146.68 579.42 1144.98 583.267 1146.7 586.875L1145.44 588.393C1147.53 589.068 1150.73 597.573 1155.7 601.905C1161.15 599.317 1160.71 591.035 1162.4 588.814C1168.7 580.571 1156.39 545.679 1159.89 540.309C1163.1 537.328 1171.72 536.356 1173.36 540.156C1180.46 556.553 1177.51 574.393 1180.76 591.367C1184.09 608.795 1200.56 633.737 1220.26 633.575C1246.3 619.147 1248.1 528.249 1233.71 521.138C1227.58 526.351 1217.29 522.356 1217.89 516.3C1218.91 505.873 1235.22 507.593 1240.12 507.738C1245.23 510.518 1249.85 517.979 1253.18 522.805C1253.94 523.919 1254.07 539.224 1253.97 541.789C1254.34 542.249 1256.06 544.411 1256.08 545.01C1256.37 555.024 1256.56 565.512 1256.15 575.512C1255.87 577.076 1254.2 578.039 1254.18 579.701C1254 597.902 1251.14 617.245 1240.3 632.404C1235.42 638.834 1230.02 643.857 1221.6 645.066C1202.42 647.818 1189.11 638.164 1178.64 622.999C1177.08 620.74 1173.77 611.822 1172.27 610.696C1167.5 615.792 1168.21 614.942 1161.56 617.089C1151.37 620.379 1145.02 610.589 1137.36 609.116L1135 611.15C1118.83 612.769 1116.86 610.568 1104.02 600.858C1100.66 600.833 1097.34 604.593 1094.01 605.525C1090.54 606.494 1085.39 603.637 1082.23 605.115C1080.78 605.791 1079.68 607.389 1078.11 608.045C1076.49 608.724 1075.17 607.88 1073.61 607.2C1070.79 605.967 1054.2 610.639 1046.28 608.556C1037.95 606.363 1032 600.62 1024.48 596.898L1023.01 597.446C1019.44 602.491 1017.26 612.578 1017.08 618.74C1017 621.741 1015.42 622.238 1013.11 624.257C1013.38 626.126 1014.91 628.91 1015.86 630.458C1032.31 657.435 1011.36 659.01 990.153 657.487C989.318 657.427 981.467 652.663 980.2 651.902C976.18 652.101 972.753 657.222 968.981 658.219C948.881 663.449 937.88 639.476 959.541 630.742C969.721 626.637 972.591 633.261 981.742 630.339C983.996 628.888 986.959 633.486 987.138 635.4C987.907 643.613 1002.09 651.224 1006.2 642.421C1005.77 633.522 987.666 621.135 986.59 610.574C986.493 609.62 985.533 605.373 984.897 604.722C981.813 611.317 981.993 611.47 976.139 615.804C963.662 625.043 957.93 614.281 948.301 612.611C943.14 623.467 936.54 618.651 930.146 620.44C928.736 622.809 929.119 622.798 929.204 625.478C929.467 629.92 925.064 636.463 922.111 639.755C900.881 663.427 853.186 660.97 830.459 640.874C820.057 631.676 812.547 615.587 810.341 602.081C810.108 600.65 810.354 600.824 809.583 599.378C802.951 598.165 794.595 601.182 788.029 602.699C758.174 609.597 737.373 621.027 715.875 642.75C712.733 642.877 711.373 643.039 708.348 642.294C706.131 640.428 706.755 641.417 706.054 638.525C707.556 631.155 722.431 616.771 729.094 612.732C745.747 602.636 764.738 596.668 783.175 590.198C786.079 589.179 804.888 586.276 808.993 585.048C809.658 580.583 811.585 562.645 812.444 557.309C815.178 540.332 820.569 525.185 825.164 508.719C827.064 501.908 831.261 493.441 833.303 486.227C834.33 482.601 835.077 476.652 836.832 474.406C838.921 473.968 843.898 474.166 845.91 475.047C848.449 483.922 837.441 509.592 835.294 519.283C832.826 530.423 820.49 574.524 825.447 582.53C831.397 582.068 865.597 578.069 869.52 576.313C869.522 576.787 861.604 556.035 860.926 553.623C854.776 531.737 861.962 508.16 885.991 502.225C892.527 500.61 900.417 500.423 907.221 500.75C932.321 506.142 937.782 518.698 943.063 541.366C948.219 536.905 954.2 530.935 961.397 535.457C963.438 538.568 963.731 543.003 960.928 545.307C950.745 553.676 943.072 567.537 934.243 576.249C925.97 578.919 924.003 572.766 919.03 575.3C913.224 578.258 907.187 580.379 901.23 582.984L900.842 584.013C904.071 585.113 915.767 598.81 919.82 600.635C922.258 595.334 924.19 589.747 928.667 586.95C937.5 581.43 951.413 573.633 951.449 590.828C951.726 591.936 953.712 595.051 953.729 595.946C953.929 606.454 972.067 611.175 973.513 600.266C972.606 590.087 959.368 587.038 952.31 581.947C949.837 580.164 947.112 577.116 945 574.875C944.904 572.568 944.977 567.287 945.904 565.374C949.098 558.79 962.41 551.014 969.089 553.831C952.054 558.015 938.089 571.47 959.581 582.786C965.121 585.703 982.633 594.613 976.915 603.048C971.376 611.217 964.335 611.435 956.873 606.52C946.588 599.747 952.101 590.519 944.777 583.456C938.353 580.524 926.256 592.889 924.611 598.26C918.625 617.804 939.149 627.712 947.666 605.177C951.473 609.617 957.574 616.284 963.974 616.184C978.481 615.956 988.79 601.479 979.187 588.479C972.647 579.626 945.712 575.782 958.894 564.863C962.085 562.22 972.706 558.178 976.25 560.524C977.005 564.284 976.359 567.447 976.634 571.107C977.729 585.657 995.773 596.621 1009.26 591.732C1009.98 593.195 1010.77 594.09 1012.71 593.84C1010.71 599.262 1004.78 615.12 1009.16 619.756C1011.61 620.422 1010.58 620.423 1013.06 619.708C1014.07 616.448 1017.08 587.622 1025.54 593.555C1036.81 601.454 1062.23 617.384 1071.64 598.828L1072.97 600.593L1075.11 600.835C1074.86 603.509 1074.66 602.475 1075.77 604.804C1078.65 604.371 1080.66 599.722 1082.6 600.274C1092.38 603.062 1095.28 605.445 1103.28 593.584C1105.04 595.983 1106.99 598.234 1109.11 600.315C1118.44 609.376 1129.72 613.14 1139.66 602.768C1150.65 617.115 1163.75 620.001 1173.11 602.554C1179.78 624.503 1206.95 657.982 1232.34 636.373C1249.65 621.637 1251.17 586.486 1252.43 564.665C1253.33 567.033 1253.4 571.895 1253.53 574.626C1254.33 570.674 1254.44 548.631 1253.55 544.817L1251.75 544.301C1250.44 533.219 1250.08 520.565 1241.5 512.282C1234.35 505.381 1215.52 512.358 1223.75 520.731C1228.01 521.823 1237.08 514.725 1239.62 521.665C1249.25 547.919 1250.31 617.932 1223.94 633.81C1203.3 646.238 1178.22 605.15 1176.79 588.779C1174.86 578.722 1177.08 545.159 1167.82 540.484C1165.5 540.601 1165.24 540.883 1163.55 542.374C1162.16 544.433 1162.58 547.57 1163.18 549.879C1166.58 562.858 1171.63 596.012 1158.55 605.084C1156.4 605.437 1155.21 605.467 1153.41 604.108C1134.66 589.967 1153.27 560.365 1107.58 541.261C1111.13 535.538 1127.64 511.428 1121.84 504.928C1116.47 505.111 1111.2 519.908 1108.47 524.484C1105.3 529.783 1102.65 533.378 1098.43 537.924C1086.93 537.233 1059.92 535.752 1059.08 552.863C1058.93 555.715 1059.95 558.506 1061.9 560.588C1064.41 563.256 1067.31 563.915 1070.72 564.759L1066.28 565.703C1065.27 568.034 1066.39 567.478 1065.58 569.853C1050.57 555.863 1029.19 559.021 1025.39 535.864C1023.21 522.555 1041.05 509.792 1040.1 502.816C1035.43 499.168 1029.15 506.787 1026.56 510.208C1015.03 525.382 1013.54 547.511 1029.95 560.01C1041.92 569.133 1061.72 570.464 1064.65 587.253C1065.6 593.535 1064.2 597.559 1058.35 600.17ZM813.187 595.167C817.122 633.931 844.347 657.108 883.973 653.025C891.885 652.21 899.092 650.709 906.452 647.523C945.486 625.754 915.451 600.353 893.757 581.721C904.823 578.113 914.761 574.691 923.379 567.092C936.242 555.75 944.002 535.255 932.039 520.238C901.832 482.321 847.013 510.421 866.102 559.35C868.801 566.151 872.652 572.437 877.486 577.93C858.962 581.814 838.904 582.908 820.175 585.872C821.193 552.335 831.678 520.785 841.051 488.921C841.918 485.976 843.682 480.58 842.978 477.816C841.8 476.625 841.641 476.333 840.138 475.686C828.735 508.195 813.32 552.748 812.988 586.917C776.446 593.359 736.204 602.073 712.372 633.759C711.018 635.559 709.535 637.732 710.044 640.052C710.841 640.388 711.856 640.922 712.627 640.167C740.955 612.432 773.071 599.708 813.187 595.167ZM974.25 561.375C976.161 566.007 973.777 571.708 975.75 574.875C975.787 571.916 976.095 564.237 975.415 561.784L974.25 561.375ZM982.87 587.832C983.14 589.142 986.527 599.9 986.964 600.338C987.098 594.657 989.005 591.234 982.87 587.832ZM1007.85 596.177C1005.2 596.231 1003.43 595.635 1001.54 597.665C997.666 601.831 998.379 606.218 1000.83 610.822C1005.19 605.25 1005.23 601.338 1007.97 597.341L1007.85 596.177ZM969.126 563.22C965.379 564.931 961.993 566.248 959.619 569.759C959.437 575.629 972.408 576.133 973.594 580.219C976.145 582.668 975.785 583.067 978.773 583.803C978.596 581.774 975.978 580.517 974.554 577.905C972.392 573.941 973.556 566.212 971.444 563.828C970.463 563.466 970.148 563.23 969.126 563.22ZM966.06 637.502C962.036 638.838 957.957 641.254 958.128 646.111C960.202 649.051 961.649 648.459 965.005 647.896C968.006 645.934 970.335 644.615 972.706 641.866L973.046 640.006C971.041 637.996 969.157 638.008 966.06 637.502Z"/><path fill="#5DC2A6" d="M840.138 475.686C841.641 476.333 841.8 476.625 842.978 477.816C843.682 480.58 841.918 485.976 841.051 488.921C831.678 520.785 821.193 552.335 820.175 585.872C838.904 582.908 858.962 581.814 877.486 577.93C872.652 572.437 868.801 566.151 866.102 559.35C847.013 510.421 901.832 482.321 932.039 520.238C944.002 535.255 936.242 555.75 923.379 567.092C914.761 574.691 904.823 578.113 893.757 581.721C915.451 600.353 945.486 625.754 906.452 647.523C899.092 650.709 891.885 652.21 883.973 653.025C844.347 657.108 817.122 633.931 813.187 595.167C773.071 599.708 740.955 612.432 712.627 640.167C711.856 640.922 710.841 640.388 710.044 640.052C709.535 637.732 711.018 635.559 712.372 633.759C736.204 602.073 776.446 593.359 812.988 586.917C813.32 552.748 828.735 508.195 840.138 475.686ZM820.72 594.208C824.164 617.64 835.134 635.908 859.328 641.455C866.635 643.168 868.702 643.234 875.278 643.272C888.785 643.35 925.394 636.317 912.932 615.603C910.633 611.781 885.134 585.839 882.267 585.104L881.097 585.285L820.72 594.208ZM887.88 575.767C893.84 574.254 900.065 572.801 905.567 570.005C913.1 566.075 919.462 562.88 925.003 556.31C939.513 539.103 929.444 518.408 909.721 512.591C904.848 511.199 899.776 510.629 894.715 510.906C877.932 513.586 868.22 526.88 871.378 543.686C873.571 555.354 880.172 566.891 887.88 575.767Z"/><path fill="#5DC2A6" d="M1036.46 417.838C1039.8 420.133 1043.77 427.983 1046.66 431.682C1058.69 447.061 1078.35 459.611 1096.7 465.563C1127.95 475.917 1162.05 473.309 1191.37 458.324C1194.82 448.906 1200.55 442.997 1210.22 439.841C1235.35 431.645 1234.66 462.998 1226.98 477.537L1226.81 477.786C1217.86 490.848 1193.69 498.568 1178.8 501.328C1141.8 508.186 1097.63 499.042 1066.35 477.983C1051.15 466.401 1031.28 451.48 1025.93 432.379C1023.68 424.341 1029.29 422.093 1035.73 421.064L1036.46 417.838Z"/><path fill="#5DC2A6" d="M993.646 593.24C995.347 593.729 995.506 593.873 996.659 595.223C997.441 597.986 996.054 603.119 995.561 606.536C1000.23 619.868 1016.72 629.803 1017.79 645.006C1018.42 654.026 1007.94 655.191 1001.31 655.444C990.854 655.844 986.628 652.793 979.474 646.023C971.163 654.9 961.685 661.842 952.249 649.707C948.956 637.802 960.726 628.532 971.334 632.436C978.839 635.199 975.759 631.77 981.701 632.526C984.559 635.571 982.176 637.611 983.643 640.185C985.126 647.601 1011.32 652.021 1011.19 644.38C1010.99 632.526 975.169 607.052 993.646 593.24ZM965.005 647.896C968.006 645.934 970.335 644.615 972.706 641.866L973.046 640.006C971.041 637.996 969.157 638.008 966.06 637.502C962.036 638.838 957.957 641.254 958.128 646.111C960.202 649.051 961.649 648.459 965.005 647.896Z"/><path fill="#5DC2A6" d="M957.732 535.635C957.682 536.137 956.972 537.822 957.003 537.861C959.036 540.363 959.24 539.072 959.359 541.897C954.949 546.568 950.589 551.256 946.276 555.985C941.407 561.324 934.59 572.009 929.047 575.64C927.129 574.648 925.691 574.123 924.522 572.314C924.657 568.712 929.463 562.909 931.625 559.911C939.448 549.063 945.014 540.822 957.732 535.635Z"/><defs><linearGradient id="gradient_0" gradientUnits="userSpaceOnUse" x1="640.6026" y1="335.00546" x2="766.04877" y2="562.72998"><stop offset="0" stop-color="#52BC99"/><stop offset="1" stop-color="#7AD6CC"/></linearGradient></defs><path fill="url(#gradient_0)" d="M770.851 261.646C777.184 263.076 779.821 260.149 784.068 263.895C794.679 273.253 797.748 296.479 798.755 309.792C800.073 328.767 800.292 347.802 799.412 366.802C797.07 419.544 787.305 450.363 752.489 490.959C759.627 495.207 789.201 508.425 791.528 511.109C798.295 518.916 794.761 536.311 794.149 545.86C792.057 549.273 791.189 550.328 788.575 553.267C774.677 550.897 768.308 544.379 757.099 536.392C748.959 530.591 741.011 525.149 732.48 519.949C725.825 526.347 718.332 531.81 710.205 536.19C681.433 551.605 642.054 552.475 611.416 543.289C609.163 542.579 606.92 541.839 604.687 541.069C581.378 533.004 558.692 520.669 546.399 497.748C543.298 491.795 541.921 483.555 544.36 477.258C551.489 459.65 583.336 450.398 600.037 449.104C621.678 447.427 645.598 452.703 666.426 457.647C676.322 459.996 687.652 462.96 697.216 466.543C708.868 470.909 720.242 476.198 732.063 480.497C760.704 437.911 759.683 373.507 760.456 324.169C760.534 319.188 761.443 301.634 759.839 298.52L756.578 298.507C754.004 295.952 751.778 283.182 751.454 279.084C753.552 274.336 765.844 266.036 770.851 261.646ZM571.518 488.046C591.39 512.611 631.031 519.708 660.951 518.372C666.282 518.134 673.408 517.863 678.588 516.701C690.704 514.975 698.732 512.3 709.683 506.432C677.639 490.224 640.006 476.667 603.499 478.792C590.854 479.702 582.745 481.477 571.518 488.046Z"/><path fill="#5DC2A6" d="M1167.42 225.926C1173.12 225.069 1193.46 226.886 1199.62 228.45C1212.89 231.819 1224.37 238.092 1232.03 249.664C1249.03 276.56 1250.07 313.752 1243.17 344.149C1223.11 432.485 1108.51 444.294 1059.66 374.312C1041.29 347.991 1037.79 275.545 1045.36 243.966C1051.77 237.991 1056.91 236.038 1065.15 233.914C1067.21 234.706 1071.57 236.329 1072.81 237.877C1079.29 245.992 1074.89 269.154 1074.13 278.761C1073.56 286.028 1073.28 293.314 1073.29 300.604C1073.36 327.203 1073.79 346.732 1092.9 365.732C1099.91 373.324 1109.35 378.096 1119.23 380.791C1140.26 386.664 1162.76 383.924 1181.77 373.176C1208.81 357.555 1222 300.588 1207.64 273.01C1206.24 270.32 1204.48 267.31 1202.95 264.681C1179.84 255.992 1152.87 260.616 1132.76 273.705C1113.86 286.001 1131.89 296.213 1145.28 297.672C1150.03 298.189 1165.79 297.732 1168.89 295.389C1168.2 294.56 1167.08 293.239 1166.57 292.338C1162.34 284.983 1178.42 278.816 1183.39 276.426C1189.22 277.241 1193.94 277.145 1199.51 279.939C1207.89 282.388 1208.5 309.558 1203.8 314.196C1181.76 335.917 1142.41 336.098 1118.4 319.847C1095.63 304.444 1084.62 283.585 1099.4 260.164C1107.58 247.199 1131.66 235.494 1145.79 230.419C1151.95 228.203 1160.67 227.227 1167.42 225.926Z"/><defs><linearGradient id="gradient_1" gradientUnits="userSpaceOnUse" x1="601.95587" y1="215.86615" x2="680.84882" y2="434.44186"><stop offset="0" stop-color="#49B286"/><stop offset="1" stop-color="#6ACEB9"/></linearGradient></defs><path fill="url(#gradient_1)" d="M666.406 191.223C667.94 191.052 677.624 194.442 678.172 196.643C691.96 252.064 703.606 309.138 729.846 360.428C732.952 366.499 737.379 374.844 739.238 380.955C742.063 390.239 742.441 427.953 723.606 415.297C717.214 411.002 710.552 402.325 706.08 395.99C702.627 389.457 699.447 379.76 696.648 372.685C682.075 336.476 670.464 299.145 661.928 261.059L659.231 268.183C645.654 303.431 636.964 336.109 628.632 372.886C627.877 376.219 625.739 385.966 625.598 388.932C624.778 406.242 626.722 410.37 618.646 425.878L612.574 429.209L601.608 425.808C583.34 397.497 585.311 411.9 591.941 378.721C604.146 317.641 619 257.28 647.903 201.718C649.361 198.915 663.029 192.828 666.406 191.223Z"/><path fill="#5DC2A6" d="M975.846 219.271C1007.68 214.374 1028.43 278.416 1028.02 303.008C1026.8 376.517 963.086 433.816 892.034 438.383C880.077 439.152 867.259 434.475 855.938 434.68L858.221 436.124L858.042 437.136C851.094 440.521 842.964 442.127 836.618 436.373C833.639 433.671 834.144 429.533 834.147 425.814C834.079 417.71 830.142 402.706 832.904 394.409C835.974 391.381 843.399 395.617 846.214 397.841C844.45 398.235 842.791 398.416 841.004 398.644L841.095 399.255C847.414 402.541 857.315 404.472 864.477 404.746C901.792 406.174 925.097 403.517 954.114 378.134C978.537 356.768 983.493 339.537 987.081 307.046C988.196 296.949 985.873 274.212 979.139 266.601C978.614 266.948 975.39 269.15 975.081 269.234C955.085 274.718 947.703 267.563 939.803 250.301C941.943 245.147 945.56 239.519 949.243 235.363C958.781 224.602 961.754 220.751 975.846 219.271Z"/><defs><linearGradient id="gradient_2" gradientUnits="userSpaceOnUse" x1="1292.2982" y1="433.04568" x2="1363.9922" y2="214.70636"><stop offset="0" stop-color="#53BC97"/><stop offset="1" stop-color="#74D0C5"/></linearGradient></defs><path fill="url(#gradient_2)" d="M1337.79 214.014C1339.92 213.823 1342.06 213.702 1344.2 213.652C1350.43 213.549 1366.83 215.52 1373.69 216.84C1374.38 217.503 1374.96 218.06 1375.43 218.511C1375.83 221.188 1375.82 220.277 1374.2 223.007L1374.61 223.307C1378.67 226.308 1379.61 235.532 1380.37 240.535C1378.75 243.142 1378.18 244.538 1376.86 247.267C1375.45 250.199 1374.41 246.725 1371.36 247.681C1370.96 249.956 1370.56 251.861 1370.01 254.108C1367.39 256.141 1369.83 254.169 1366.11 253.928C1366.69 256.249 1367.12 257.271 1366.46 259.573C1362.69 261.722 1349.46 254.298 1344.14 251.57C1331.92 245.303 1291.55 251.843 1293.02 269.183C1294.56 287.484 1328.12 305.156 1342.61 317.093C1363.95 334.678 1387.93 349.273 1386.21 381.496C1385.35 397.036 1378.39 411.61 1366.85 422.055C1352.81 434.534 1330.95 440.208 1312.31 439.122C1299.26 438.125 1277.61 431.531 1269.77 420.37C1264.65 413.089 1268.68 413.847 1260.08 405.995C1258.81 399.17 1258.79 398.479 1260.68 392.085C1299.46 378.179 1292.67 407.544 1326.81 402.083C1346.74 398.896 1368.52 381.134 1350.7 360.461C1327.51 333.551 1277.27 310.164 1269.72 273.72C1263.38 243.149 1312.85 217.601 1337.79 214.014Z"/><path fill="#5DC2A6" d="M776.287 17.894L777.58 18.4076C776.922 20.0125 776.317 20.7382 775.329 22.1283L775.887 23.2381L778.709 23.5536C781.94 28.4884 778.4 49.893 779.576 58.931C771.978 64.3153 764.629 69.916 757.769 76.2298C733.486 98.5815 651.808 187.67 630.544 195.528C619.852 199.479 604.346 196.499 594.284 192.025C591.411 190.834 588.446 189.092 585.701 187.577C586.675 180.755 588.888 173.698 591.687 167.408C593.558 163.204 595.804 159.648 599.123 156.411C608.988 146.788 621.634 139.315 632.144 130.165C656.64 108.838 738.919 28.3486 761.255 20.202C764.086 19.1695 765.128 19.8525 767.653 21.0805C770.462 21.4643 773.657 19.29 776.287 17.894Z"/><defs><linearGradient id="gradient_3" gradientUnits="userSpaceOnUse" x1="1353.0157" y1="161.39091" x2="1302.2102" y2="67.547142"><stop offset="0" stop-color="#59C3A6"/><stop offset="1" stop-color="#7FD1C9"/></linearGradient></defs><path fill="url(#gradient_3)" d="M1405.3 11.2458C1409.04 13.0758 1409.17 12.8919 1413.33 12.7395C1418.77 18.3503 1418.47 36.5868 1418.12 44.3716C1408.71 57.8057 1392.88 69.0431 1381.93 81.4135C1377.28 86.6641 1372.92 93.1522 1368.17 98.7061L1304.99 171.771C1294.62 183.664 1282.82 198.389 1270.34 208.178C1267.08 210.734 1249.45 217.755 1246.68 217.187L1246.13 215.717C1244.4 214.692 1240.89 214.509 1240.7 213.557C1239.6 208.081 1243.67 195.162 1245.16 190.127C1240.72 188.762 1235.5 184.156 1233.03 180.427C1234.66 173.875 1251.15 164.303 1256.78 159.523C1298.09 124.493 1331 82.5151 1366.41 41.9059C1376.63 30.1847 1390.83 17.0197 1405.3 11.2458Z"/><path fill="#5DC2A6" d="M930.076 49.9292C937.383 55.7692 938.426 75.2641 940.268 83.9597C935.929 94.4687 933.575 107.008 929.46 117.708C905.496 180.025 893.526 245.656 873.316 308.981C871.008 316.214 865.269 324.061 856.682 322.172C851.271 317.637 849.617 315.792 846.564 309.407C847.173 305.919 847.807 303.382 848.709 299.995C852.369 296.799 853.879 294.881 854.884 290.025C863.868 246.585 870.555 203.176 881.437 160.074C884.578 147.845 887.916 135.668 891.449 123.546C892.815 118.829 895.669 109.326 896.986 104.17C897.543 100.254 895.673 97.2389 896.397 93.162C899.091 77.9967 906.99 54.9031 925.303 53.6497C928.035 53.4626 928.506 51.8983 930.076 49.9292Z"/><path fill="#5DC2A6" d="M1098.43 537.924C1102.65 533.378 1105.3 529.783 1108.47 524.484C1111.2 519.908 1116.47 505.111 1121.84 504.928C1127.64 511.428 1111.13 535.538 1107.58 541.261C1153.27 560.365 1134.66 589.967 1153.41 604.108C1155.21 605.467 1156.4 605.437 1158.55 605.084C1171.63 596.012 1166.58 562.858 1163.18 549.879C1162.58 547.57 1162.16 544.433 1163.55 542.374C1165.24 540.883 1165.5 540.601 1167.82 540.484C1177.08 545.159 1174.86 578.722 1176.79 588.779C1178.22 605.15 1203.3 646.238 1223.94 633.81C1250.31 617.932 1249.25 547.919 1239.62 521.665C1237.08 514.725 1228.01 521.823 1223.75 520.731C1215.52 512.358 1234.35 505.381 1241.5 512.282C1250.08 520.565 1250.44 533.219 1251.75 544.301C1252.15 551.363 1252.46 557.564 1252.43 564.665C1251.17 586.486 1249.65 621.637 1232.34 636.373C1206.95 657.982 1179.78 624.503 1173.11 602.554C1163.75 620.001 1150.65 617.115 1139.66 602.768C1129.72 613.14 1118.44 609.376 1109.11 600.315C1106.99 598.234 1105.04 595.983 1103.28 593.584C1095.28 605.445 1092.38 603.062 1082.6 600.274C1080.66 599.722 1078.65 604.371 1075.77 604.804C1074.66 602.475 1074.86 603.509 1075.11 600.835C1076.51 598.458 1077.84 594.224 1078.24 591.28C1078.7 587.933 1094.5 565.436 1097.82 568.956C1106.39 578.475 1106.6 594.769 1120.9 599.845C1136.83 605.504 1135.02 596.771 1134.12 586.061C1133.86 582.937 1137.26 583.669 1133.8 576.503C1126.51 561.383 1117.51 554.416 1102.14 548.673C1101.2 549.775 1100.23 550.862 1099.25 551.934C1090.86 561.069 1082.83 564.227 1070.72 564.759C1067.31 563.915 1064.41 563.256 1061.9 560.588C1059.95 558.506 1058.93 555.715 1059.08 552.863C1059.92 535.752 1086.93 537.233 1098.43 537.924ZM1087.51 598.369C1095.54 597.537 1096.66 595.252 1100.63 588.709C1098.16 583.305 1096.86 581.179 1097.83 575.166C1092.13 580.475 1084.95 586.516 1083.45 594.32C1084.37 597.124 1084.37 596.402 1087.51 598.369ZM1077.82 554.361C1084.84 552.024 1087.22 551.097 1092.86 546.13C1088.91 545.983 1084.5 545.673 1080.61 546.09C1076.46 547.3 1068.51 548.892 1067.97 554.084C1070.2 557.75 1074.79 556.195 1077.82 554.361Z"/><path fill="#76CEC4" d="M156.831 270.451C163.847 270.722 175.792 277.567 182.958 279.635C208.207 286.921 233.872 293.137 260.291 293.261C266.851 293.292 266.326 295.089 273.895 293.504L274.289 293.419C273.449 294.612 272.406 296.095 271.16 297.866C270.401 305.754 269.315 316.306 268.883 324.009C267.328 326.17 267.571 325.525 264.161 326.189C221.907 327.553 184.321 322.801 144.917 307.449C145.768 305.67 149.957 300.333 149.899 300.161C149.343 298.494 147.699 297.721 148.01 295.859C149.696 285.774 149.123 277.574 156.831 270.451Z"/><path fill="#F3F7F7" d="M167.952 303.631L164.966 301.822L165.231 301.121C168.833 301.368 201.508 310.38 203.387 311.846C196.779 312.279 172.972 307.938 166.304 306.083L169.314 304.268L169.254 303.497L167.952 303.631Z"/><path fill="#CDECE8" d="M152.652 300.809C158.191 301.353 162.19 303.272 167.952 303.631L169.254 303.497L169.314 304.268L166.304 306.083C161.636 304.62 157.17 302.682 152.652 300.809Z"/><path fill="#76CEC4" d="M1161.8 117.135C1166.98 116.597 1175.58 116.327 1179.45 119.805C1190.19 129.45 1195.59 158.712 1187.08 170.511C1181 178.931 1164.39 180.568 1155.05 182.063C1139.2 179.567 1116.3 168.346 1123.4 149.374C1127.6 138.16 1136.56 127.873 1146.9 121.707C1150.94 119.3 1157.26 118.164 1161.8 117.135Z"/><path fill="#5DC2A6" d="M978.491 553.727C982.102 548.843 989.934 538.658 996.243 537.488C998.321 538.436 997.583 537.858 998.966 539.913L997.361 543.166L998.725 543.948C997.629 547.413 990.729 552.352 987.977 555.597C1002.86 560.039 1029.46 575.888 1009.26 591.732C995.773 596.621 977.729 585.657 976.634 571.107C976.359 567.447 977.005 564.284 976.25 560.524C972.706 558.178 962.085 562.22 958.894 564.863C945.712 575.782 972.647 579.626 979.187 588.479C988.79 601.479 978.481 615.956 963.974 616.184C957.574 616.284 951.473 609.617 947.666 605.177C939.149 627.712 918.625 617.804 924.611 598.26C926.256 592.889 938.353 580.524 944.777 583.456C952.101 590.519 946.588 599.747 956.873 606.52C964.335 611.435 971.376 611.217 976.915 603.048C982.633 594.613 965.121 585.703 959.581 582.786C938.089 571.47 952.054 558.015 969.089 553.831C972.833 554.349 974.795 554.067 978.491 553.727ZM1007.81 583.853C1009.03 582.16 1010.44 580.857 1009.81 578.609C1007.19 569.42 992.882 563.232 984.612 561.511C984.955 563.241 985.535 566.147 985.24 567.958C983.286 579.931 997.925 587.035 1007.81 583.853ZM932.949 614.559C940.398 610.748 941.366 608.799 944.925 601.08C943.503 597.154 942.723 594.507 941.703 590.459L940.659 590.036C931.576 594.493 920.49 607.889 932.949 614.559Z"/><path fill="#5DC2A6" d="M1058.35 600.17C1064.2 597.559 1065.6 593.535 1064.65 587.253C1061.72 570.464 1041.92 569.133 1029.95 560.01C1013.54 547.511 1015.03 525.382 1026.56 510.208C1029.15 506.787 1035.43 499.168 1040.1 502.816C1041.05 509.792 1023.21 522.555 1025.39 535.864C1029.19 559.021 1050.57 555.863 1065.58 569.853C1072.76 579.158 1076.11 587.061 1071.64 598.828C1062.23 617.384 1036.81 601.454 1025.54 593.555C1017.08 587.622 1014.07 616.448 1013.06 619.708C1010.58 620.423 1011.61 620.422 1009.16 619.756C1004.78 615.12 1010.71 599.262 1012.71 593.84C1022.9 578.589 1026.97 586.216 1039.13 594.159C1043.77 597.184 1052.77 599.282 1058.35 600.17Z"/></svg>